<svg width="632" height="579" viewBox="0 0 632 579" fill="none" xmlns="http://www.w3.org/2000/svg">
<path d="M149.128 219.384C148.861 219.747 148.708 219.976 148.651 220.052C148.67 219.899 148.823 219.232 148.975 218.201C149.032 218.601 149.089 218.983 149.128 219.384Z" fill="url(#paint0_linear_1_1003)"/>
<path d="M403.414 175.323H467.666C469.609 175.323 471.184 176.899 471.184 178.842V208.026C471.184 209.97 469.609 211.545 467.666 211.545H410.059L399.895 227.29V208.026V197.622V178.842C399.895 176.899 401.47 175.323 403.414 175.323Z" fill="#383838"/>
<path d="M465.019 182.244H406.06V186.305H465.019V182.244Z" fill="white"/>
<path d="M465.019 190.291H406.06V194.351H465.019V190.291Z" fill="white"/>
<path d="M439.073 198.337H406.06V202.398H439.073V198.337Z" fill="white"/>
<path d="M540.931 538.384V540.06L540.939 578.818C541.769 578.818 542.6 578.635 543.236 578.266L573.543 560.768C574.174 560.405 574.497 559.922 574.497 559.438L579.277 516.486C579.186 516.947 578.832 517.391 578.216 517.745L543.563 537.751C542.834 538.174 541.885 538.384 540.931 538.384Z" fill="url(#paint1_linear_1_1003)"/>
<path d="M502.597 516.506C502.7 516.962 503.055 517.395 503.654 517.744L538.3 537.751C539.031 538.174 539.979 538.384 540.931 538.384C541.886 538.384 542.834 538.174 543.563 537.751L578.216 517.744C578.833 517.391 579.187 516.947 579.278 516.486V516.475L579.305 516.227C579.305 515.675 578.946 515.13 578.217 514.705L543.564 494.701C542.113 493.864 539.755 493.864 538.301 494.701L503.654 514.705C502.808 515.2 502.453 515.864 502.597 516.506Z" fill="url(#paint2_linear_1_1003)"/>
<path d="M507.402 516.471C507.491 516.871 507.802 517.249 508.326 517.554L538.632 535.054C539.268 535.423 540.097 535.606 540.933 535.606C541.768 535.606 542.597 535.423 543.234 535.054L573.546 517.554C574.083 517.246 574.392 516.856 574.474 516.452V516.445L574.498 516.228C574.498 515.745 574.181 515.266 573.546 514.896L543.234 497.397C541.966 496.668 539.901 496.668 538.632 497.397L508.326 514.896C507.584 515.329 507.276 515.91 507.402 516.471Z" fill="url(#paint3_linear_1_1003)"/>
<path d="M502.568 516.486L507.369 559.438C507.369 559.922 507.689 560.405 508.322 560.768L538.633 578.266C539.271 578.635 540.1 578.818 540.939 578.818L540.931 540.06V538.384C539.979 538.384 539.031 538.174 538.3 537.751L503.654 517.745C503.055 517.394 502.7 516.962 502.597 516.506L502.568 516.486Z" fill="url(#paint4_linear_1_1003)"/>
<path d="M540.939 516.227C540.939 516.227 539.504 492.34 516.816 492.34C516.816 492.34 521.195 492.34 524.142 492.34C527.091 492.34 530.326 483.08 508.761 483.08C508.761 483.08 500.909 482.599 511.894 480.991C522.882 479.383 494.311 462.326 471.801 472.51C471.801 472.51 466.978 484.479 484.307 486.622C501.633 488.766 481.448 488.766 477.16 487.07C472.874 485.371 474.213 493.589 482.61 497.251C491.005 500.913 498.41 501.361 502.568 501.361C506.726 501.361 500.829 503.413 492.255 502.519C483.68 501.628 480.556 499.306 480.556 499.306C480.556 499.306 499.4 516.544 513.334 514.669C527.269 512.793 540.939 516.227 540.939 516.227Z" fill="url(#paint5_linear_1_1003)"/>
<path d="M542.526 519.309C542.483 519.309 542.441 519.291 542.413 519.256C542.329 519.154 533.929 508.906 521.668 498.312C510.361 488.54 493.364 476.468 476.608 474.442C476.528 474.432 476.471 474.359 476.48 474.279C476.49 474.199 476.56 474.142 476.642 474.152C493.474 476.187 510.523 488.295 521.863 498.094C534.141 508.705 542.555 518.969 542.638 519.071C542.689 519.134 542.68 519.226 542.618 519.277C542.591 519.299 542.558 519.309 542.526 519.309Z" fill="#4E6DC4"/>
<path d="M505.307 507.326C502.576 507.326 499.612 507.111 496.43 506.593C496.351 506.581 496.297 506.506 496.31 506.426C496.323 506.346 496.399 506.293 496.477 506.306C514.868 509.3 526.005 502.109 526.115 502.036C526.183 501.992 526.273 502.01 526.318 502.077C526.362 502.144 526.344 502.235 526.277 502.279C526.185 502.34 518.468 507.326 505.307 507.326ZM516.8 494.221C516.778 494.221 516.755 494.215 516.733 494.204C516.662 494.167 516.634 494.079 516.67 494.008C516.697 493.956 519.27 488.8 515.005 483.315C514.956 483.252 514.967 483.16 515.031 483.111C515.095 483.062 515.186 483.072 515.236 483.137C519.619 488.773 516.957 494.089 516.93 494.142C516.904 494.192 516.853 494.221 516.8 494.221ZM491.742 492.505C489.345 492.505 486.755 492.266 484.008 491.676C483.929 491.658 483.879 491.581 483.896 491.502C483.913 491.424 483.993 491.374 484.069 491.39C498.394 494.467 508.435 487.932 508.534 487.865C508.602 487.821 508.692 487.839 508.737 487.906C508.782 487.973 508.764 488.063 508.696 488.108C508.615 488.163 501.949 492.505 491.742 492.505ZM495.885 480.578C495.809 480.578 495.744 480.519 495.74 480.441C495.735 480.374 495.259 473.632 489.505 470.493C489.435 470.454 489.409 470.366 489.447 470.295C489.486 470.224 489.574 470.198 489.645 470.237C495.543 473.454 496.027 480.355 496.031 480.424C496.036 480.504 495.975 480.573 495.895 480.578C495.891 480.578 495.888 480.578 495.885 480.578ZM477.413 479.15C476.199 479.15 474.933 479.003 473.658 478.635C473.581 478.612 473.536 478.532 473.559 478.454C473.581 478.377 473.663 478.332 473.739 478.355C480.098 480.189 486.277 476.436 486.339 476.398C486.408 476.355 486.497 476.377 486.54 476.445C486.582 476.514 486.561 476.603 486.492 476.646C486.442 476.677 482.374 479.15 477.413 479.15Z" fill="#4E6DC4"/>
<path d="M541.523 516.249C541.523 516.249 549.558 491.467 539.376 473.247C539.376 473.247 537.766 471.16 537.766 479.171C537.766 487.18 539.108 472.442 528.656 461.993C518.206 451.542 504.541 448.059 504.541 448.059C504.541 448.059 497.543 472.366 509.898 479.171C509.898 479.171 512.399 482.594 505.075 479.171C497.752 475.747 510.121 490.396 522.337 495.756C522.337 495.756 524.547 499.773 518.116 496.871C511.686 493.968 516.696 509.948 541.523 516.249Z" fill="url(#paint6_linear_1_1003)"/>
<path d="M542.525 520.689C542.453 520.689 542.391 520.636 542.381 520.562C542.368 520.464 541.045 510.6 536.073 497.463C531.486 485.342 522.766 467.876 507.274 453.503C507.215 453.448 507.211 453.356 507.266 453.297C507.321 453.238 507.413 453.234 507.473 453.289C523.009 467.704 531.751 485.216 536.349 497.368C541.332 510.536 542.657 520.426 542.67 520.525C542.68 520.604 542.624 520.678 542.544 520.688C542.538 520.689 542.532 520.689 542.525 520.689Z" fill="#4E6DC4"/>
<path d="M536.321 505.612C533.639 505.612 528.86 504.627 521.914 499.607C521.848 499.56 521.834 499.469 521.881 499.404C521.928 499.338 522.02 499.324 522.084 499.371C533.14 507.36 538.728 504.964 538.783 504.938C538.856 504.905 538.943 504.937 538.976 505.01C539.01 505.084 538.977 505.17 538.904 505.204C538.816 505.244 537.96 505.612 536.321 505.612ZM534.324 492.853C534.265 492.853 534.209 492.816 534.187 492.757C534.159 492.682 534.198 492.599 534.273 492.57C534.317 492.553 538.698 490.72 538.698 476.394C538.698 476.313 538.763 476.248 538.844 476.248C538.924 476.248 538.989 476.313 538.989 476.394C538.989 490.974 534.563 492.774 534.375 492.844C534.358 492.85 534.341 492.853 534.324 492.853ZM528.489 482.297C525.46 482.297 514.458 481.666 507.261 472.961C507.21 472.899 507.219 472.806 507.28 472.755C507.342 472.704 507.434 472.712 507.486 472.775C515.759 482.782 529.129 481.998 529.264 481.988C529.355 481.984 529.414 482.043 529.42 482.123C529.426 482.204 529.365 482.273 529.284 482.279C529.265 482.28 528.983 482.297 528.489 482.297ZM521.359 469.508C521.322 469.508 521.286 469.494 521.258 469.467C521.2 469.411 521.198 469.319 521.254 469.261C521.28 469.233 523.865 466.405 521.219 457.903C521.196 457.827 521.238 457.745 521.316 457.721C521.392 457.697 521.475 457.74 521.498 457.817C524.203 466.51 521.576 469.347 521.463 469.464C521.435 469.493 521.397 469.508 521.359 469.508Z" fill="#4E6DC4"/>
<path d="M543.461 503.761C543.461 503.761 527.045 483.584 543.949 460.005C543.949 460.005 534.324 472.868 534.324 461.882C534.324 450.896 547.439 423.29 579.47 421.952C611.497 420.616 595.688 444.999 581.754 455.716L594.436 453.037C594.436 453.037 591.714 489.64 543.461 503.761Z" fill="url(#paint7_linear_1_1003)"/>
<path d="M543.949 513.849C543.874 513.849 543.811 513.791 543.804 513.715C543.789 513.54 542.325 495.956 547.403 476.601C550.386 465.229 555.011 455.478 561.148 447.618C568.823 437.79 578.897 430.912 591.089 427.174C591.166 427.15 591.248 427.193 591.271 427.271C591.295 427.348 591.252 427.43 591.175 427.453C563.696 435.877 552.359 458.866 547.687 476.667C542.62 495.974 544.079 513.515 544.094 513.69C544.101 513.77 544.042 513.841 543.962 513.848C543.958 513.849 543.953 513.849 543.949 513.849Z" fill="#4E6DC4"/>
<path d="M544.53 493.196C544.46 493.196 544.399 493.146 544.386 493.075C544.372 492.996 544.425 492.92 544.505 492.906C544.685 492.875 562.722 489.471 579.967 468.761C580.019 468.699 580.111 468.69 580.173 468.743C580.235 468.794 580.243 468.886 580.191 468.948C562.872 489.745 544.736 493.161 544.555 493.194C544.547 493.195 544.538 493.196 544.53 493.196Z" fill="#5AE595"/>
<path d="M546.919 479.293C546.858 479.293 546.801 479.255 546.781 479.194C546.697 478.947 538.55 454.293 546.795 440.816C546.836 440.747 546.926 440.725 546.995 440.767C547.064 440.809 547.085 440.899 547.043 440.968C538.871 454.329 546.974 478.855 547.057 479.101C547.083 479.178 547.042 479.26 546.966 479.286C546.95 479.291 546.934 479.293 546.919 479.293ZM552.267 467.631C551.078 467.631 550.47 467.5 550.447 467.494C550.368 467.476 550.32 467.398 550.338 467.319C550.356 467.241 550.433 467.191 550.513 467.21C550.609 467.232 560.259 469.286 579.26 456.312C579.326 456.267 579.417 456.284 579.462 456.35C579.508 456.417 579.491 456.507 579.424 456.553C565.004 466.4 555.91 467.631 552.267 467.631ZM561.01 448.182C561.006 448.182 561.002 448.182 560.997 448.181C560.917 448.174 560.858 448.103 560.865 448.023C560.879 447.868 562.345 432.456 569.466 425.334C569.523 425.277 569.616 425.277 569.672 425.334C569.729 425.391 569.729 425.483 569.672 425.54C562.625 432.588 561.169 447.895 561.155 448.049C561.149 448.125 561.085 448.182 561.01 448.182ZM584.629 439.052C576.916 439.052 573.614 435.952 573.571 435.909C573.513 435.853 573.512 435.761 573.568 435.703C573.624 435.645 573.716 435.644 573.774 435.7C573.832 435.756 579.747 441.287 594.398 437.347C594.477 437.325 594.555 437.372 594.577 437.449C594.597 437.527 594.552 437.607 594.474 437.628C590.612 438.667 587.347 439.052 584.629 439.052Z" fill="#4E6DC4"/>
<path d="M542.831 513.584C542.831 513.584 568.284 508.038 578.896 490.065C578.896 490.065 579.89 487.623 572.969 491.657C566.049 495.694 579.454 489.426 583.216 475.136C586.981 460.841 583.106 447.284 583.106 447.284C583.106 447.284 558.583 453.484 558.931 467.585C558.931 467.585 557.233 471.472 556.498 463.419C555.766 455.368 549.343 473.432 550.869 486.684C550.869 486.684 548.51 490.618 547.779 483.601C547.046 476.585 535.767 488.962 542.831 513.584Z" fill="url(#paint8_linear_1_1003)"/>
<path d="M540.931 521.781C540.913 521.781 540.894 521.778 540.876 521.771C540.801 521.74 540.765 521.655 540.796 521.58C541.013 521.05 562.675 468.345 579.997 456.313C580.062 456.267 580.153 456.283 580.2 456.35C580.246 456.416 580.229 456.507 580.163 456.553C562.912 468.536 541.283 521.161 541.066 521.691C541.043 521.747 540.988 521.781 540.931 521.781Z" fill="#4E6DC4"/>
<path d="M545.353 511.604C545.285 511.604 545.223 511.555 545.21 511.485C545.195 511.406 545.248 511.329 545.327 511.315C545.441 511.293 556.957 509.046 572.291 498.472C572.357 498.427 572.448 498.443 572.494 498.509C572.54 498.576 572.523 498.666 572.457 498.712C557.067 509.325 545.496 511.58 545.38 511.602C545.371 511.603 545.362 511.604 545.353 511.604Z" fill="#5AE595"/>
<path d="M552.296 496.996C552.227 496.996 552.166 496.946 552.153 496.876C552.13 496.752 549.918 484.382 553.095 475.351C553.122 475.275 553.205 475.236 553.281 475.262C553.357 475.289 553.397 475.372 553.37 475.448C550.219 484.406 552.417 496.7 552.44 496.824C552.454 496.903 552.402 496.979 552.322 496.993C552.313 496.995 552.305 496.996 552.296 496.996ZM565.031 483.933C561.262 483.933 559.979 482.623 559.889 482.526C559.835 482.466 559.839 482.374 559.898 482.319C559.957 482.266 560.049 482.268 560.104 482.327C560.149 482.376 564.031 486.25 578.349 480.298C578.424 480.267 578.509 480.302 578.54 480.376C578.571 480.451 578.536 480.536 578.461 480.567C572.18 483.178 567.89 483.933 565.031 483.933ZM568.228 469.508C568.168 469.508 568.112 469.471 568.091 469.412C568.064 469.34 565.529 462.18 571.379 456.33C571.435 456.273 571.528 456.273 571.585 456.33C571.642 456.386 571.642 456.479 571.585 456.536C565.87 462.251 568.339 469.242 568.364 469.312C568.393 469.387 568.353 469.471 568.278 469.499C568.261 469.505 568.244 469.508 568.228 469.508Z" fill="#4E6DC4"/>
<path d="M540.939 516.227C540.939 516.227 544.129 485.232 559.974 482.596C560.165 482.566 560.358 482.538 560.552 482.513C560.552 482.513 562.399 485.907 560.552 490.015C558.704 494.126 573.346 468.1 596.8 479.147C596.8 479.147 599.36 480.728 592.535 486.087C585.713 491.445 602.772 477.561 616.989 492.543C631.203 507.523 631.203 507.523 631.203 507.523C631.203 507.523 618.832 522.708 605.757 514.134C592.679 505.558 592.014 506.793 593.533 508.702C595.053 510.614 603.766 516.486 603.766 516.486C603.766 516.486 585.855 524.137 577.184 510.381C577.184 510.381 576.898 512.766 581.733 516.486C586.565 520.206 560.38 502.38 540.939 516.227Z" fill="url(#paint9_linear_1_1003)"/>
<path d="M540.084 518.752C540.055 518.752 540.025 518.744 539.999 518.725C539.934 518.678 539.918 518.587 539.965 518.522C540.045 518.409 548.127 507.195 561.987 499.694C570.13 495.287 578.646 493.002 587.297 492.905C598.108 492.798 609.161 496.097 620.146 502.752C620.215 502.794 620.237 502.884 620.195 502.953C620.154 503.022 620.064 503.044 619.995 503.002C595.234 487.999 574.863 493.059 562.135 499.946C548.332 507.414 540.282 518.579 540.202 518.691C540.174 518.731 540.129 518.752 540.084 518.752Z" fill="#4E6DC4"/>
<path d="M549.275 508.96C549.27 508.96 549.266 508.96 549.262 508.959C549.182 508.952 549.122 508.882 549.129 508.802C549.142 508.65 550.518 493.626 557.085 487.053C557.142 486.997 557.235 486.997 557.292 487.053C557.348 487.11 557.348 487.203 557.292 487.26C550.799 493.757 549.433 508.677 549.419 508.827C549.413 508.903 549.349 508.96 549.275 508.96ZM586.666 510.795C586.659 510.795 586.652 510.794 586.645 510.794C570.966 508.49 562.662 499.677 562.58 499.588C562.526 499.529 562.529 499.437 562.588 499.382C562.647 499.327 562.739 499.33 562.794 499.39C562.876 499.478 571.116 508.217 586.687 510.505C586.767 510.516 586.822 510.591 586.81 510.67C586.799 510.743 586.737 510.795 586.666 510.795ZM576.752 494.418C576.749 494.418 576.745 494.418 576.741 494.418C576.661 494.411 576.601 494.341 576.607 494.261C576.616 494.149 576.847 491.479 579.051 488.441C581.078 485.645 585.234 482.019 593.518 480.627C593.599 480.613 593.673 480.667 593.687 480.746C593.7 480.826 593.647 480.901 593.567 480.915C577.917 483.546 576.906 494.177 576.898 494.283C576.891 494.36 576.828 494.418 576.752 494.418Z" fill="#4E6DC4"/>
<path d="M605.154 508.96C605.133 508.96 605.113 508.955 605.093 508.947C597.799 505.624 595.323 501.596 594.531 498.802C593.667 495.759 594.532 493.54 594.569 493.447C594.598 493.372 594.683 493.336 594.759 493.365C594.833 493.395 594.87 493.48 594.84 493.555C594.831 493.577 593.973 495.79 594.817 498.741C595.597 501.47 598.033 505.41 605.214 508.681C605.288 508.715 605.32 508.801 605.286 508.875C605.262 508.928 605.209 508.96 605.154 508.96Z" fill="#4E6DC4"/>
<path d="M619.266 496.51C619.246 496.51 619.225 496.505 619.205 496.496C610.057 492.232 606.64 496.411 606.606 496.454C606.556 496.517 606.464 496.529 606.401 496.479C606.338 496.429 606.326 496.338 606.376 496.275C606.41 496.23 609.953 491.862 619.328 496.232C619.401 496.266 619.432 496.353 619.398 496.426C619.373 496.479 619.321 496.51 619.266 496.51Z" fill="#4E6DC4"/>
<path d="M540.939 516.227C540.939 516.227 557.905 499.298 568.354 516.227C568.354 516.227 572.91 521.635 563.443 519.491C553.975 517.35 564.425 520.831 568.622 522.26C572.822 523.691 578.94 539.098 564.871 547.649C564.871 547.649 562.439 549.771 560.106 543.875C557.769 537.981 557.749 547.359 560.106 551.378C562.458 555.398 534.057 573.753 538.477 546.689C538.477 546.689 535.932 552.853 535.932 555.532C535.932 558.212 522.802 543.206 532.985 533.024C532.985 533.024 533.118 529.482 528.429 535.606C523.739 541.732 520.505 513.408 540.939 516.227Z" fill="url(#paint10_linear_1_1003)"/>
<path d="M546.383 554.695C546.322 554.695 546.265 554.657 546.245 554.596C536.743 526.768 538.036 519.019 539.652 516.877C540.271 516.057 540.917 516.081 540.946 516.081C541.027 516.086 541.089 516.154 541.085 516.235C541.08 516.313 541.016 516.373 540.939 516.373C540.937 516.373 540.935 516.373 540.933 516.373C540.918 516.372 540.395 516.363 539.869 517.074C538.303 519.192 537.086 526.87 546.521 554.502C546.547 554.578 546.507 554.661 546.43 554.687C546.415 554.692 546.399 554.695 546.383 554.695Z" fill="#4E6DC4"/>
<path d="M556.564 549.557C556.506 549.557 556.451 549.523 556.428 549.465C551.883 538.094 541.807 539.504 541.707 539.519C541.629 539.531 541.553 539.477 541.541 539.397C541.528 539.318 541.583 539.243 541.663 539.231C541.767 539.214 552.068 537.772 556.7 549.357C556.729 549.432 556.693 549.517 556.618 549.547C556.601 549.554 556.582 549.557 556.564 549.557Z" fill="#4E6DC4"/>
<path d="M533.075 549.557C533.006 549.557 532.946 549.51 532.932 549.44C530.887 539.303 539.31 529.907 539.396 529.813C539.45 529.753 539.543 529.75 539.602 529.803C539.662 529.858 539.665 529.95 539.611 530.009C539.527 530.102 531.202 539.391 533.218 549.383C533.234 549.462 533.183 549.539 533.103 549.554C533.094 549.556 533.084 549.557 533.075 549.557Z" fill="#4E6DC4"/>
<path d="M565.05 535.752C564.997 535.752 564.946 535.722 564.92 535.672C561.163 528.223 554.247 525.403 549.107 524.349C543.527 523.204 538.782 523.834 538.734 523.84C538.654 523.853 538.581 523.796 538.57 523.716C538.559 523.636 538.615 523.562 538.695 523.551C538.743 523.545 543.537 522.909 549.165 524.063C554.368 525.13 561.371 527.987 565.181 535.54C565.217 535.612 565.188 535.7 565.116 535.736C565.095 535.747 565.073 535.752 565.05 535.752Z" fill="#4E6DC4"/>
<path d="M526.956 530.556C526.938 530.556 526.921 530.553 526.904 530.547C526.828 530.518 526.79 530.434 526.819 530.358C530.557 520.547 538.804 519.034 538.886 519.02C538.964 519.007 539.041 519.059 539.055 519.139C539.068 519.219 539.015 519.294 538.935 519.308C538.854 519.321 530.768 520.812 527.092 530.462C527.07 530.52 527.015 530.556 526.956 530.556Z" fill="#4E6DC4"/>
<path d="M565.05 524.933C565.013 524.933 564.975 524.918 564.947 524.89C552.488 512.433 539.686 517.467 539.559 517.52C539.484 517.55 539.399 517.515 539.368 517.44C539.338 517.365 539.374 517.28 539.448 517.25C539.48 517.236 542.752 515.924 547.533 516.189C551.941 516.434 558.575 518.107 565.153 524.684C565.21 524.741 565.21 524.833 565.153 524.89C565.125 524.918 565.088 524.933 565.05 524.933Z" fill="#4E6DC4"/>
<path d="M378.921 324.746C378.921 324.746 392.019 313.081 420.898 326.298C447.289 338.377 478.608 320.81 478.608 320.81L479.547 311.1C479.547 311.1 451.943 325.883 428.858 316.004C399.659 303.51 386.881 314.453 386.881 314.453L378.921 324.746Z" fill="#FDBA0E"/>
<path d="M365.855 130.131L369.731 137.986L378.399 139.246L372.128 145.36L373.607 153.994L365.855 149.918L358.102 153.994L359.582 145.36L353.31 139.246L361.978 137.986L365.855 130.131Z" fill="white"/>
<path d="M533.421 101L536.889 108.025L544.641 109.152L539.033 114.62L540.356 122.341L533.421 118.695L526.488 122.341L527.813 114.62L522.203 109.152L529.954 108.025L533.421 101Z" stroke="#FFCAB3" stroke-width="3.653" stroke-miterlimit="10"/>
<path d="M407.652 356.656L409.92 361.25L414.992 361.989L411.322 365.565L412.189 370.616L407.652 368.231L403.118 370.616L403.983 365.565L400.314 361.989L405.385 361.25L407.652 356.656Z" stroke="#FFCAB3" stroke-width="2.389" stroke-miterlimit="10"/>
<path d="M241.098 332.967L244.566 339.991L252.318 341.118L246.708 346.587L248.033 354.308L241.098 350.661L234.165 354.308L235.49 346.587L229.88 341.118L237.632 339.991L241.098 332.967Z" stroke="#FFCAB3" stroke-width="3.653" stroke-miterlimit="10"/>
<path d="M318.971 36.1591L322.438 43.1845L330.191 44.3109L324.581 49.7794L325.904 57.5003L318.971 53.8544L312.038 57.5003L313.361 49.7794L307.752 44.3109L315.504 43.1845L318.971 36.1591Z" stroke="#FFCAB3" stroke-width="3.653" stroke-miterlimit="10"/>
<path d="M224.795 196.172L227.665 201.986L234.081 202.919L229.438 207.444L230.533 213.834L224.795 210.817L219.058 213.834L220.153 207.444L215.51 202.919L221.926 201.986L224.795 196.172Z" fill="white"/>
<path d="M368.301 394.292L371.171 400.106L377.587 401.038L372.944 405.564L374.039 411.955L368.301 408.938L362.564 411.955L363.658 405.564L359.016 401.038L365.432 400.106L368.301 394.292Z" fill="white"/>
<path d="M431.751 517.392L434.62 519.762L441.036 520.143L436.395 521.987L437.49 524.592L431.751 523.362L426.013 524.592L427.108 521.987L422.466 520.143L428.882 519.762L431.751 517.392Z" fill="url(#paint11_linear_1_1003)"/>
<path d="M485.765 523.371L488.635 525.741L495.051 526.122L490.409 527.967L491.504 530.571L485.765 529.341L480.027 530.571L481.122 527.967L476.479 526.122L482.896 525.741L485.765 523.371Z" fill="url(#paint12_linear_1_1003)"/>
<path d="M258.285 0L261.154 5.814L267.571 6.74666L262.928 11.2722L264.024 17.6622L258.285 14.6454L252.547 17.6622L253.642 11.2722L249 6.74666L255.416 5.814L258.285 0Z" fill="white"/>
<path d="M218.241 50.1207H212.78V65.529H218.241V50.1207Z" fill="#FF96FF"/>
<path d="M61.3833 134.283L56.1399 132.018L49.7499 146.813L54.9932 149.078L61.3833 134.283Z" fill="#FF96FF"/>
<path d="M327.354 142.322L322.534 149.222L303.066 135.621L307.885 128.722L327.354 142.322Z" fill="#FF96FF"/>
<path d="M560.491 262.601L555.671 269.501L536.203 255.9L541.023 249L560.491 262.601Z" fill="url(#paint13_linear_1_1003)"/>
<path d="M432.195 457.721L429.777 461.184L439.548 468.009L441.966 464.546L432.195 457.721Z" fill="#FF96FF"/>
<path d="M436.197 534.118L435.859 537.052L447.7 538.412L448.038 535.478L436.197 534.118Z" fill="#FF96FF"/>
<path d="M220.522 119L216 120.886L221.323 133.646L225.845 131.759L220.522 119Z" fill="#FF96FF"/>
<path d="M192.844 33.7591L188.322 35.6459L183 22.8857L187.522 21L192.844 33.7591Z" fill="url(#paint14_linear_1_1003)"/>
<path d="M262.35 265.849C262.35 265.849 282.303 256.405 285.567 270.553C288.832 284.702 305.158 285.065 305.158 285.065L303.706 290.144C303.706 290.144 286.021 284.792 283.209 275.36C280.398 265.928 276.134 264.84 264.253 268.377L262.35 265.849Z" fill="url(#paint15_linear_1_1003)"/>
<path d="M9.11462 390.61C9.11462 390.61 19.2431 402.577 10.1299 407.406C1.01667 412.233 3.75078 423.503 3.75078 423.503L0 423.434C0 423.434 0.440663 410.319 6.39978 406.667C12.3594 403.012 12.3271 399.888 7.72762 392.379L9.11462 390.61Z" fill="url(#paint16_linear_1_1003)"/>
<path d="M385.611 125.377C385.611 125.377 380.406 103.924 394.923 103.594C409.439 103.264 413.104 87.3517 413.104 87.3517L417.783 89.8022C417.783 89.8022 408.958 106.036 399.151 106.878C389.346 107.719 387.417 111.674 388.472 124.025L385.611 125.377Z" fill="url(#paint17_linear_1_1003)"/>
<path d="M544.111 214.025C544.111 214.025 538.905 192.573 553.422 192.243C567.939 191.913 571.603 176 571.603 176L576.282 178.451C576.282 178.451 567.458 194.685 557.65 195.526C547.845 196.368 545.915 200.323 546.972 212.673L544.111 214.025Z" fill="url(#paint18_linear_1_1003)"/>
<path d="M188.867 157.555C188.867 157.555 198.262 159.313 195.812 165.103C193.363 170.894 198.995 175.169 198.995 175.169L197.196 176.582C197.196 176.582 192.355 170.211 193.765 166.19C195.175 162.168 193.956 160.704 188.891 158.926L188.867 157.555ZM265.245 68.1605C265.245 68.1605 267.22 55.089 275.342 58.1939C283.464 61.301 289.099 53.309 289.099 53.309L291.138 55.727C291.138 55.727 282.569 62.728 276.943 60.9718C271.316 59.2179 269.35 60.9733 267.137 68.0594L265.245 68.1605ZM169.708 90.7373C169.708 90.7373 180.376 82.4143 184.226 90.4387C188.075 98.4647 197.89 96.4932 197.89 96.4932L197.702 99.726C197.702 99.726 186.405 98.8952 183.46 93.6296C180.514 88.366 177.819 88.2864 171.185 91.9935L169.708 90.7373Z" fill="#FF96FF"/>
<path d="M193.632 164.723L183.042 174.873L197.162 179.664L193.632 164.723Z" fill="url(#paint19_linear_1_1003)"/>
<path d="M271.855 230.771L261.264 240.92L275.385 245.712L271.855 230.771Z" fill="url(#paint20_linear_1_1003)"/>
<path d="M391.084 522.29L380.494 529.112L394.615 532.333L391.084 522.29Z" fill="#F9948E"/>
<path d="M355.485 530.543L344.895 536.233L359.015 538.918L355.485 530.543Z" fill="#F9948E"/>
<path d="M283.077 526.356L272.486 532.045L286.606 534.731L283.077 526.356Z" fill="url(#paint21_linear_1_1003)"/>
<path d="M437.416 55.0226L428.914 63.1691L440.249 67.0168L437.416 55.0226Z" fill="#F9948E"/>
<path d="M281.747 125.508L262.66 143.8L288.11 152.437L281.747 125.508Z" fill="#F9948E"/>
<path d="M379.223 166.627L360.135 184.92L385.586 193.556L379.223 166.627Z" stroke="#F9948E" stroke-width="4.603" stroke-miterlimit="10"/>
<path d="M232.932 256.498L225.243 263.866L235.494 267.345L232.932 256.498Z" stroke="#F9948E" stroke-width="1.854" stroke-miterlimit="10"/>
<path d="M161.907 236L155.203 242.423L164.14 245.456L161.907 236Z" stroke="#F9948E" stroke-width="2.881" stroke-miterlimit="10"/>
<path d="M242.198 149.171L235.495 155.594L244.432 158.627L242.198 149.171Z" stroke="#F9948E" stroke-width="2.881" stroke-miterlimit="10"/>
<path d="M118.823 112.119L111.878 118.774L121.139 121.916L118.823 112.119Z" stroke="#F9948E" stroke-width="2.985" stroke-miterlimit="10"/>
<path d="M33.9771 108.303L29.6088 112.49L35.4336 114.467L33.9771 108.303Z" stroke="#F9948E" stroke-width="1.878" stroke-miterlimit="10"/>
<path d="M105.195 169L94 179.729L108.928 184.796L105.195 169Z" fill="#F9948E"/>
<path d="M309.338 18L306 32.1333L320.314 28.5159L309.338 18Z" fill="#F9948E"/>
<path d="M423.16 260.122L419.821 274.256L434.135 270.638L423.16 260.122Z" fill="url(#paint22_linear_1_1003)"/>
<path d="M451.583 373.885L448.245 388.019L462.559 384.401L451.583 373.885Z" fill="url(#paint23_linear_1_1003)"/>
<path d="M315.976 445.42L312.637 459.554L326.951 455.936L315.976 445.42Z" fill="#F9948E"/>
<path d="M171.282 119L169 128.665L178.787 126.191L171.282 119Z" fill="url(#paint24_linear_1_1003)"/>
<path d="M374.448 500.988C374.448 500.988 367.099 511.29 361.744 516.645C356.39 521.999 351.898 533.013 372.083 525.013C392.266 517.015 398.296 513.567 394.112 505.569C389.926 497.569 384.463 491.661 384.463 491.661C384.463 491.661 376.694 500.469 374.448 500.988ZM379.999 400.144C379.999 400.144 394.439 390.047 397.886 396.613C401.331 403.177 404.119 418.929 404.941 423.851C405.761 428.773 404.612 442.72 397.063 430.742C389.517 418.766 386.399 414.99 380.656 412.529C374.912 410.068 379.999 400.144 379.999 400.144Z" fill="#525253"/>
<path d="M327.49 363.637C327.49 363.637 311.903 412.366 322.897 423.358C333.89 434.352 342.631 435.578 371.819 421.43C401.004 407.277 392.093 396.401 369.966 401.347C347.838 406.292 336.023 404.981 346.197 389.229C356.371 373.477 354.658 360.497 354.658 360.497C354.658 360.497 334.344 335.471 327.49 363.637Z" fill="#232323"/>
<path d="M348.647 360.593C348.647 360.593 349.807 439.112 361.62 475.538C373.436 511.967 388.366 511.641 383.526 485.057C378.686 458.473 362.933 398.089 373.108 367.239L348.647 360.593Z" fill="#232323"/>
<path d="M446.21 296.845C449.492 296.845 454.66 291.184 455.891 288.229C457.121 285.276 455.809 280.682 458.598 281.502C461.388 282.322 461.632 286.492 461.223 289.125C460.814 291.758 470.33 289.789 475.992 289.789C481.651 289.789 480.507 292.907 474.186 293.645C467.869 294.383 469.758 295.861 476.648 295.532C483.539 295.203 488.875 297.133 484.197 298.486C479.522 299.838 470.988 299.554 470.578 300.33C470.168 301.111 484.443 299.244 484.443 301.09C484.443 302.937 471.765 304.228 469.797 304.228C467.828 304.228 481.303 305.028 481.612 306.382C481.92 307.736 461.142 309.48 453.184 307.592C445.225 305.705 439.152 302.588 439.152 302.588C439.152 302.588 444.239 296.845 446.21 296.845ZM301.625 218.102C300.896 215.096 304.934 209.102 307.367 207.317C309.8 205.533 314.3 205.715 312.929 203.341C311.558 200.967 307.683 201.67 305.361 202.631C303.04 203.591 302.728 194.434 301.469 189.246C300.211 184.061 297.609 185.803 298.338 191.758C299.066 197.71 297.292 196.309 296.062 189.922C294.831 183.535 291.877 179.075 291.677 183.662C291.478 188.246 293.635 196.002 293.015 196.55C292.39 197.099 290.928 183.606 289.237 184.016C287.544 184.427 289.18 196.329 289.617 198.132C290.055 199.936 286.326 187.768 285.017 187.787C283.709 187.805 286.729 207.23 290.229 214.101C293.727 220.975 297.933 225.846 297.933 225.846C297.933 225.846 302.064 219.909 301.625 218.102Z" fill="#FFC7A1"/>
<path d="M332.087 354.277C332.087 354.277 343.079 366.583 352.104 362.972C361.13 359.363 376.39 288.968 376.39 288.968L361.832 279.842H354.237L348.648 287.987L341.275 303.573L332.087 354.277Z" fill="#FAFAFA"/>
<path d="M382.103 279.842C382.103 279.842 391.322 287.491 396.738 292.906C402.152 298.321 427.256 296.516 437.267 295.286C447.278 294.055 452.363 296.845 449.083 304.228C445.802 311.614 431.033 312.434 421.189 312.434C411.341 312.434 392.47 310.299 392.47 310.299C392.47 310.299 370.482 332.535 374.42 342.625C378.357 352.717 383.527 361.087 383.527 361.087C383.527 361.087 369.25 375.854 360.144 377.084C351.038 378.316 349.068 375.607 349.068 375.607C349.068 375.607 347.264 353.456 351.12 339.179C354.975 324.904 370.941 291.005 382.103 279.842ZM364.799 273.872C364.799 273.872 350.956 275.719 336.024 260.785C321.093 245.853 308.086 221.404 304.763 216.112C301.44 210.819 293.564 213.65 292.826 218.695C292.087 223.741 300.825 250.325 318.301 265.092C335.776 279.861 340.206 286.138 340.206 286.138C340.206 286.138 334.299 305.704 331.591 331.55C328.885 357.395 321.747 365.762 321.747 365.762L334.054 373.885C334.054 373.885 338.566 299.119 355.592 287.397C372.615 275.677 364.8 277.973 364.8 277.973V273.872H364.799Z" fill="#383838"/>
<path d="M382.201 279.738C382.201 279.738 386.666 290.63 379.22 298.075H372.328C372.328 298.075 375.075 304.886 365.723 314.237C356.368 323.591 351.12 339.179 351.12 339.179C351.12 339.179 349.777 314.156 382.201 279.738Z" fill="#2B2B2B"/>
<path d="M363.714 288.927C363.714 288.927 364.861 289.543 368.513 288.148C372.165 286.753 372.861 289.542 372.861 289.542L371.616 291.676C371.616 291.676 364.697 293.726 361.374 293.029C358.053 292.332 363.714 288.927 363.714 288.927Z" fill="#C64646"/>
<path d="M363.017 272.805C363.017 272.805 351.357 279.392 346.689 284.061L350.381 287.851C350.381 287.851 332.908 286.015 338.488 327.53C338.488 327.53 337.667 297.35 360.475 284.134C360.475 284.133 364.013 273.802 363.017 272.805Z" fill="#2B2B2B"/>
<path d="M380.387 276.365C380.387 276.365 388.861 284.293 369.17 295.286C369.17 295.286 367.695 288.065 363.755 286.999C359.817 285.933 360.475 284.132 360.475 284.132L355.55 281.583C355.55 281.583 359.326 274.122 364.576 273.012C369.827 271.903 380.387 276.365 380.387 276.365Z" fill="#E2E2E2"/>
<path d="M362.029 269.523C362.029 269.523 362.196 276.579 360.965 279.287C359.735 281.994 360.965 287.737 360.965 287.737C360.965 287.737 369.62 289.007 375.61 283.018C381.601 277.03 381.722 271.739 382.544 269.85C383.366 267.964 382.626 261.728 375.733 261.728C368.842 261.728 365.231 263.697 362.029 269.523Z" fill="#F2B58C"/>
<path d="M374.173 238.756C374.173 238.756 366.052 247.371 362.482 254.14C358.914 260.908 356.082 268.17 359.897 270.385C363.714 272.6 372.451 273.953 376.635 272.231C380.82 270.508 380.82 270.508 380.82 270.508C380.82 270.508 384.347 273.872 388.122 270.754C391.898 267.636 390.581 265.751 387.793 265.421C385.005 265.093 384.677 261.976 388.039 258.611C391.403 255.247 385.66 240.644 374.173 238.756Z" fill="#FFC7A1"/>
<path d="M371.468 238.756C371.468 238.756 378.44 246.059 384.185 248.602C389.928 251.144 387.713 257.463 385.251 259.925C382.792 262.385 383.857 264.847 385.005 265.996C386.153 267.145 380.82 270.508 380.82 270.508C380.82 270.508 385.741 275.677 392.879 270.508C400.018 265.339 407.279 255.002 397.063 244.787C386.849 234.572 382.543 230.265 383.896 225.711C385.249 221.158 364.947 229.28 371.468 238.756Z" fill="#2B2B2B"/>
<path d="M352.781 294.056C352.781 294.056 305.924 306.126 275.073 297.347L261.618 304.976L277.042 310.884C277.042 310.884 348.739 309.972 358.79 294.056L354.052 292.907C354.053 292.906 353.355 294.056 352.781 294.056Z" fill="#C64646"/>
<path d="M359.492 285.138C359.492 285.138 359.74 288.475 365.032 288.475C365.032 288.475 363.112 293.107 360.689 295.531C358.266 297.955 355.862 295.737 354.201 294.814C352.54 293.89 352.602 290.506 354.509 291.306C354.509 291.306 353.818 289.769 355.823 287.765C357.825 285.761 358.443 284.695 359.492 285.138Z" fill="#C64646"/>
<path d="M358.681 285.108L360.419 284.103C360.419 284.103 360.823 287.011 360.894 287.374C360.966 287.737 361.365 287.881 362.757 287.849C364.149 287.816 365.248 287.758 365.248 287.758C365.248 287.758 365.317 288.314 364.627 289.381C363.937 290.447 358.193 289.152 358.193 289.152L358.681 285.108Z" fill="#C64646"/>
<path d="M257.966 167.834L262.648 177.32L273.116 178.843L265.541 186.226L267.329 196.654L257.966 191.73L248.601 196.654L250.39 186.226L242.815 178.843L253.283 177.32L257.966 167.834Z" fill="url(#paint25_linear_1_1003)"/>
<path d="M426.978 162.405C430.618 162.405 433.569 159.454 433.569 155.814C433.569 152.173 430.618 149.222 426.978 149.222C423.337 149.222 420.386 152.173 420.386 155.814C420.386 159.454 423.337 162.405 426.978 162.405Z" fill="#FFCAB3"/>
<path d="M343.978 186.683C347.619 186.683 350.57 183.732 350.57 180.092C350.57 176.451 347.619 173.5 343.978 173.5C340.338 173.5 337.387 176.451 337.387 180.092C337.387 183.732 340.338 186.683 343.978 186.683Z" fill="#FFCAB3"/>
<path d="M401.243 56.6416C404.883 56.6416 407.835 53.6902 407.835 50.0495C407.835 46.4089 404.883 43.4575 401.243 43.4575C397.602 43.4575 394.651 46.4089 394.651 50.0495C394.651 53.6902 397.602 56.6416 401.243 56.6416Z" fill="url(#paint26_linear_1_1003)"/>
<path d="M288.024 108.049C291.352 108.049 294.049 105.352 294.049 102.024C294.049 98.6972 291.352 96 288.024 96C284.697 96 282 98.6972 282 102.024C282 105.352 284.697 108.049 288.024 108.049Z" fill="#FFCAB3"/>
<path d="M161.057 200.115C163.851 200.115 166.115 197.851 166.115 195.057C166.115 192.264 163.851 190 161.057 190C158.264 190 156 192.264 156 195.057C156 197.851 158.264 200.115 161.057 200.115Z" fill="#FFCAB3"/>
<path d="M151.601 76.2028C154.143 76.2028 156.203 74.1427 156.203 71.6014C156.203 69.0601 154.143 67 151.601 67C149.06 67 147 69.0601 147 71.6014C147 74.1427 149.06 76.2028 151.601 76.2028Z" fill="#FFCAB3"/>
<path d="M105.141 235L107.348 239.471L112.283 240.189L108.712 243.67L109.556 248.585L105.141 246.264L100.729 248.585L101.571 243.67L98 240.189L102.934 239.471L105.141 235Z" fill="url(#paint27_linear_1_1003)"/>
<path d="M182.192 308.864L176.948 306.6L170.561 321.395L175.805 323.659L182.192 308.864Z" fill="#FF96FF"/>
<path d="M170.096 387.541L164.853 385.277L171.242 370.482L176.486 372.746L170.096 387.541Z" fill="url(#paint28_linear_1_1003)"/>
<path d="M141.872 305.115L133.372 313.26L144.705 317.108L141.872 305.115Z" fill="#F9948E"/>
<path d="M170.559 354.707C173.352 354.707 175.617 352.443 175.617 349.65C175.617 346.857 173.352 344.592 170.559 344.592C167.766 344.592 165.502 346.857 165.502 349.65C165.502 352.443 167.766 354.707 170.559 354.707Z" fill="#FFCAB3"/>
<path d="M250.301 299.514C250.301 302.055 248.241 304.115 245.699 304.115C243.158 304.115 241.098 302.055 241.098 299.514C241.098 296.974 243.158 294.913 245.699 294.913C248.241 294.913 250.301 296.973 250.301 299.514Z" fill="#FFCAB3"/>
<path d="M490.674 106.519C487.251 107.757 483.472 105.984 482.236 102.56C480.998 99.1362 482.771 95.3581 486.195 94.1204C489.619 92.8832 493.398 94.6557 494.634 98.0802C495.872 101.504 494.098 105.282 490.674 106.519Z" fill="#FFCAB3"/>
<path d="M328.94 350.654C328.94 350.654 342.645 372.907 411.815 352.867C480.986 332.826 502.511 347.3 498.8 372.536C495.089 397.773 527.748 411.505 555.582 403.34C583.416 395.175 583.416 395.175 583.416 395.175L585.855 382.541C585.855 382.541 585.855 382.541 558.02 390.706C530.186 398.87 497.527 385.139 501.238 359.902C504.949 334.665 483.424 320.192 414.254 340.233C345.084 360.273 331.378 338.02 331.378 338.02C331.378 338.02 329.869 336.576 328.94 343.265C327.969 350.253 328.94 350.654 328.94 350.654Z" fill="#FDBA0E"/>
<path d="M526.677 357.505C526.677 357.505 534.44 349.36 528.155 344.863C521.868 340.367 516.737 350.433 521.032 353.505C525.327 356.577 529.946 346.212 523.529 340.694C517.113 335.177 507.056 340.686 510.896 345.314C514.736 349.942 522.41 342.635 517.113 335.177C511.816 327.719 497.149 328.178 502.823 335.464C508.497 342.751 513.751 332.772 506.819 324.05M58.2029 289.977C58.2029 289.977 64.9663 298.97 70.4317 293.505C75.8966 288.04 66.8062 281.33 63.0722 285.064C59.339 288.798 68.8083 295.052 75.3016 289.625C81.7943 284.198 78.0069 273.376 72.8122 276.406C67.6178 279.436 73.5702 288.202 81.7946 284.198C90.0198 280.194 91.9675 265.65 83.8514 270.054C75.7344 274.458 84.7168 281.276 94.4568 275.865L58.2029 289.977ZM273.852 346.932C273.852 346.932 280.617 355.925 286.083 350.459C291.546 344.994 282.456 338.284 278.723 342.018C274.989 345.752 284.458 352.007 290.951 346.579C297.445 341.153 293.657 330.33 288.463 333.36C283.269 336.391 289.221 345.156 297.445 341.152C305.669 337.148 307.618 322.604 299.502 327.008C291.384 331.412 300.368 338.23 310.108 332.819L273.852 346.932ZM516.727 231.437C516.727 231.437 524.491 223.291 518.206 218.794C511.919 214.299 506.788 224.365 511.083 227.437C515.377 230.509 519.997 220.143 513.58 214.626C507.164 209.108 497.107 214.618 500.947 219.246C504.787 223.874 512.46 216.566 507.163 209.109C501.867 201.651 487.2 202.11 492.874 209.395C498.548 216.682 503.802 206.704 496.87 197.981L516.727 231.437ZM551.339 184.118C551.339 184.118 562.158 187.209 563.221 179.554C564.279 171.898 552.982 172.031 552.257 177.261C551.532 182.491 562.858 181.766 564.762 173.52C566.667 165.275 557.115 158.93 554.802 164.48C552.488 170.031 562.524 173.431 566.667 165.275C570.81 157.12 563.588 144.346 559.774 152.754C555.956 161.165 567.234 161.181 571.738 150.99L551.339 184.118Z" stroke="#FFCAB3" stroke-width="4.695" stroke-miterlimit="10"/>
<path d="M279.401 440.682L278.452 439.778C278.493 439.735 282.545 435.425 282.183 431.613C282.049 430.206 281.343 429.064 280.024 428.12C279.751 427.925 279.482 427.761 279.217 427.626C280.082 430.733 279.31 433.96 277.896 435.761C276.477 437.568 274.563 437.952 272.901 436.762C270.31 434.909 270.68 431.003 272.508 428.448C273.499 427.062 275.08 425.88 276.987 425.791C276.562 425.125 276.022 424.492 275.352 423.916C274.224 422.945 272.987 422.347 271.747 422.035C272.133 424.971 270.945 427.583 269.056 429.035C266.888 430.7 264.311 430.468 262.642 428.457C261.177 426.691 261.34 424.539 263.069 422.84C264.543 421.392 267.16 420.329 269.995 420.443C269.725 419.728 269.341 419.002 268.829 418.281C267.416 416.292 265.221 414.856 262.937 414.022C263.148 415.782 262.954 417.361 262.472 418.571C261.849 420.137 260.736 421.143 259.42 421.33C258.299 421.491 256.545 421.144 254.556 418.59C252.905 416.471 252.991 415.003 253.354 414.146C253.87 412.926 255.25 412.135 257.239 411.918C258.435 411.787 259.808 411.867 261.222 412.163C260.737 410.555 259.879 408.847 258.556 407.183L259.582 406.367C261.214 408.421 262.195 410.556 262.67 412.539C265.41 413.39 268.134 415.04 269.897 417.522C270.627 418.55 271.129 419.589 271.437 420.606C273.063 420.91 274.708 421.634 276.206 422.923C277.27 423.837 278.048 424.879 278.587 425.973C279.293 426.165 280.03 426.513 280.786 427.054C282.41 428.216 283.319 429.709 283.488 431.492C283.904 435.901 279.585 440.489 279.401 440.682ZM277.218 427.114C275.683 427.114 274.408 428.043 273.573 429.21C272.112 431.254 271.73 434.315 273.662 435.697C275.12 436.74 276.295 435.679 276.865 434.953C278.199 433.252 278.853 430.055 277.681 427.142C277.525 427.123 277.37 427.114 277.218 427.114ZM269.554 421.767C267.248 421.767 265.151 422.631 263.987 423.775C263.261 424.488 262.252 425.936 263.65 427.621C265.113 429.383 266.989 428.97 268.257 427.996C269.887 426.743 270.866 424.417 270.377 421.804C270.101 421.779 269.826 421.767 269.554 421.767ZM258.39 413.167C258.042 413.167 257.705 413.185 257.381 413.22C255.907 413.381 254.878 413.904 254.561 414.656C254.237 415.423 254.592 416.505 255.59 417.785C256.84 419.392 258.137 420.19 259.235 420.033C260.086 419.912 260.803 419.221 261.254 418.086C261.718 416.921 261.867 415.351 261.561 413.594C260.468 413.311 259.386 413.167 258.39 413.167Z" fill="url(#paint29_linear_1_1003)"/>
<defs>
<linearGradient id="paint0_linear_1_1003" x1="148.967" y1="219.09" x2="148.373" y2="219.229" gradientUnits="userSpaceOnUse">
<stop stop-color="#FDC830"/>
<stop offset="0.287" stop-color="#FAB031"/>
<stop offset="1" stop-color="#F37335"/>
</linearGradient>
<linearGradient id="paint1_linear_1_1003" x1="540.931" y1="547.652" x2="579.277" y2="547.652" gradientUnits="userSpaceOnUse">
<stop stop-color="#E2E3E5"/>
<stop offset="1" stop-color="#EFEFEF"/>
</linearGradient>
<linearGradient id="paint2_linear_1_1003" x1="566.799" y1="528.555" x2="503.005" y2="498.151" gradientUnits="userSpaceOnUse">
<stop stop-color="#F3F7FF"/>
<stop offset="1" stop-color="#CDD9FF"/>
</linearGradient>
<linearGradient id="paint3_linear_1_1003" x1="507.375" y1="516.228" x2="574.498" y2="516.228" gradientUnits="userSpaceOnUse">
<stop stop-color="#F5995B"/>
<stop offset="1" stop-color="#FB5F5C"/>
</linearGradient>
<linearGradient id="paint4_linear_1_1003" x1="502.568" y1="547.652" x2="540.939" y2="547.652" gradientUnits="userSpaceOnUse">
<stop stop-color="#E2E3E5"/>
<stop offset="1" stop-color="#EFEFEF"/>
</linearGradient>
<linearGradient id="paint5_linear_1_1003" x1="471.184" y1="492.757" x2="540.939" y2="492.757" gradientUnits="userSpaceOnUse">
<stop stop-color="#20B5D8"/>
<stop offset="1" stop-color="#8CEE98"/>
</linearGradient>
<linearGradient id="paint6_linear_1_1003" x1="502.567" y1="482.154" x2="544.534" y2="482.154" gradientUnits="userSpaceOnUse">
<stop stop-color="#20B5D8"/>
<stop offset="1" stop-color="#8CEE98"/>
</linearGradient>
<linearGradient id="paint7_linear_1_1003" x1="534.324" y1="462.83" x2="598.202" y2="462.83" gradientUnits="userSpaceOnUse">
<stop stop-color="#20B5D8"/>
<stop offset="1" stop-color="#8CEE98"/>
</linearGradient>
<linearGradient id="paint8_linear_1_1003" x1="599.127" y1="469.057" x2="525.29" y2="492.403" gradientUnits="userSpaceOnUse">
<stop stop-color="#20B5D8"/>
<stop offset="1" stop-color="#8CEE98"/>
</linearGradient>
<linearGradient id="paint9_linear_1_1003" x1="540.939" y1="497.5" x2="631.202" y2="497.5" gradientUnits="userSpaceOnUse">
<stop stop-color="#20B5D8"/>
<stop offset="1" stop-color="#8CEE98"/>
</linearGradient>
<linearGradient id="paint10_linear_1_1003" x1="524.922" y1="534.948" x2="573.625" y2="534.948" gradientUnits="userSpaceOnUse">
<stop stop-color="#20B5D8"/>
<stop offset="1" stop-color="#8CEE98"/>
</linearGradient>
<linearGradient id="paint11_linear_1_1003" x1="422.466" y1="520.992" x2="441.036" y2="520.992" gradientUnits="userSpaceOnUse">
<stop stop-color="#20B5D8"/>
<stop offset="1" stop-color="#8CEE98"/>
</linearGradient>
<linearGradient id="paint12_linear_1_1003" x1="476.479" y1="526.971" x2="495.051" y2="526.971" gradientUnits="userSpaceOnUse">
<stop stop-color="#E2E3E5"/>
<stop offset="1" stop-color="#EFEFEF"/>
</linearGradient>
<linearGradient id="paint13_linear_1_1003" x1="536.203" y1="259.25" x2="560.491" y2="259.25" gradientUnits="userSpaceOnUse">
<stop stop-color="#20B5D8"/>
<stop offset="1" stop-color="#8CEE98"/>
</linearGradient>
<linearGradient id="paint14_linear_1_1003" x1="183" y1="28.323" x2="192.844" y2="28.323" gradientUnits="userSpaceOnUse">
<stop stop-color="#20B5D8"/>
<stop offset="1" stop-color="#8CEE98"/>
</linearGradient>
<linearGradient id="paint15_linear_1_1003" x1="262.35" y1="276.453" x2="305.158" y2="276.453" gradientUnits="userSpaceOnUse">
<stop stop-color="#20B5D8"/>
<stop offset="1" stop-color="#8CEE98"/>
</linearGradient>
<linearGradient id="paint16_linear_1_1003" x1="0" y1="407.057" x2="13.9329" y2="407.057" gradientUnits="userSpaceOnUse">
<stop stop-color="#20B5D8"/>
<stop offset="1" stop-color="#8CEE98"/>
</linearGradient>
<linearGradient id="paint17_linear_1_1003" x1="384.703" y1="106.364" x2="417.783" y2="106.364" gradientUnits="userSpaceOnUse">
<stop stop-color="#20B5D8"/>
<stop offset="1" stop-color="#8CEE98"/>
</linearGradient>
<linearGradient id="paint18_linear_1_1003" x1="543.203" y1="195.013" x2="576.282" y2="195.013" gradientUnits="userSpaceOnUse">
<stop stop-color="#20B5D8"/>
<stop offset="1" stop-color="#8CEE98"/>
</linearGradient>
<linearGradient id="paint19_linear_1_1003" x1="183.042" y1="172.194" x2="197.162" y2="172.194" gradientUnits="userSpaceOnUse">
<stop stop-color="#20B5D8"/>
<stop offset="1" stop-color="#8CEE98"/>
</linearGradient>
<linearGradient id="paint20_linear_1_1003" x1="261.264" y1="238.241" x2="275.385" y2="238.241" gradientUnits="userSpaceOnUse">
<stop stop-color="#20B5D8"/>
<stop offset="1" stop-color="#8CEE98"/>
</linearGradient>
<linearGradient id="paint21_linear_1_1003" x1="272.486" y1="530.544" x2="286.606" y2="530.544" gradientUnits="userSpaceOnUse">
<stop stop-color="#20B5D8"/>
<stop offset="1" stop-color="#8CEE98"/>
</linearGradient>
<linearGradient id="paint22_linear_1_1003" x1="419.821" y1="267.189" x2="434.135" y2="267.189" gradientUnits="userSpaceOnUse">
<stop stop-color="#20B5D8"/>
<stop offset="1" stop-color="#8CEE98"/>
</linearGradient>
<linearGradient id="paint23_linear_1_1003" x1="448.245" y1="380.952" x2="462.559" y2="380.952" gradientUnits="userSpaceOnUse">
<stop stop-color="#20B5D8"/>
<stop offset="1" stop-color="#8CEE98"/>
</linearGradient>
<linearGradient id="paint24_linear_1_1003" x1="169" y1="123.832" x2="178.787" y2="123.832" gradientUnits="userSpaceOnUse">
<stop stop-color="#20B5D8"/>
<stop offset="1" stop-color="#8CEE98"/>
</linearGradient>
<linearGradient id="paint25_linear_1_1003" x1="242.815" y1="182.244" x2="273.116" y2="182.244" gradientUnits="userSpaceOnUse">
<stop stop-color="#20B5D8"/>
<stop offset="1" stop-color="#8CEE98"/>
</linearGradient>
<linearGradient id="paint26_linear_1_1003" x1="394.651" y1="50.0498" x2="407.834" y2="50.0498" gradientUnits="userSpaceOnUse">
<stop stop-color="#20B5D8"/>
<stop offset="1" stop-color="#8CEE98"/>
</linearGradient>
<linearGradient id="paint27_linear_1_1003" x1="98" y1="241.792" x2="112.283" y2="241.792" gradientUnits="userSpaceOnUse">
<stop stop-color="#20B5D8"/>
<stop offset="1" stop-color="#8CEE98"/>
</linearGradient>
<linearGradient id="paint28_linear_1_1003" x1="164.853" y1="379.012" x2="176.486" y2="379.012" gradientUnits="userSpaceOnUse">
<stop stop-color="#20B5D8"/>
<stop offset="1" stop-color="#8CEE98"/>
</linearGradient>
<linearGradient id="paint29_linear_1_1003" x1="253.137" y1="423.525" x2="283.516" y2="423.525" gradientUnits="userSpaceOnUse">
<stop stop-color="#20B5D8"/>
<stop offset="1" stop-color="#8CEE98"/>
</linearGradient>
</defs>
</svg>
